# Blender v2.79 (sub 0) OBJ File: 'passenger_seat.blend'
# www.blender.org
o Plane
v -0.397619 -0.500000 -0.498355
v -0.397712 -0.500000 0.270097
v -0.335119 0.500001 -0.498347
v -0.335126 0.500001 -0.435847
v -0.397643 0.104771 -0.300120
v -0.397637 -0.090181 -0.349312
v -0.397637 -0.395585 -0.347982
v -0.393002 0.101167 0.205389
v -0.393000 0.060470 0.188432
v -0.397646 0.032912 -0.276166
v -0.397651 -0.078870 -0.238240
v -0.397728 -0.030314 0.398517
v -0.335228 -0.099597 0.399516
v -0.397660 -0.266504 -0.160392
v -0.397668 -0.402239 -0.096517
v -0.382259 -0.406231 0.202900
v -0.335137 -0.090181 -0.349305
v -0.335119 -0.499999 -0.498347
v -0.335212 -0.499999 0.270105
v -0.335143 0.104772 -0.300112
v -0.339907 0.101167 0.205396
v -0.339905 0.060470 0.188439
v -0.335137 -0.395585 -0.347974
v -0.335146 0.032912 -0.276159
v -0.335150 -0.078869 -0.238233
v -0.335228 -0.030313 0.398525
v -0.335160 -0.266503 -0.160385
v -0.335168 -0.402238 -0.096509
v -0.350649 -0.406231 0.202904
v 0.397226 -0.500000 -0.498258
v 0.397133 -0.500000 0.270194
v 0.334726 0.500001 -0.498266
v 0.334718 0.500001 -0.435766
v 0.397202 0.104771 -0.300023
v 0.397208 -0.090181 -0.349216
v 0.397208 -0.395585 -0.347885
v 0.392472 0.101193 0.205496
v 0.392474 0.060444 0.188517
v 0.397199 0.032912 -0.276070
v 0.397194 -0.078870 -0.238144
v 0.397117 -0.030314 0.398613
v 0.334617 -0.099597 0.399598
v 0.397185 -0.266504 -0.160296
v 0.397177 -0.402239 -0.096420
v 0.382034 -0.406231 0.202993
v 0.334708 -0.090181 -0.349223
v 0.334726 -0.499999 -0.498266
v 0.334633 -0.499999 0.270186
v 0.334702 0.104772 -0.300030
v 0.339309 0.101193 0.205489
v 0.339311 0.060444 0.188511
v 0.334708 -0.395585 -0.347892
v 0.334699 0.032912 -0.276077
v 0.334694 -0.078869 -0.238151
v 0.334617 -0.030313 0.398606
v 0.334685 -0.266503 -0.160303
v 0.334677 -0.402238 -0.096428
v 0.349748 -0.406231 0.202990
vt 0.614231 0.569482
vt 0.540917 0.782957
vt 0.507158 0.782957
vt 0.587661 0.464182
vt 0.627169 0.530669
vt 0.647654 0.470292
vt 0.887271 0.567535
vt 0.878112 0.545554
vt 0.689702 0.368945
vt 0.588379 0.299225
vt 0.991586 0.496519
vt 0.992121 0.459096
vt 0.724203 0.295631
vt 0.922222 0.242827
vt 0.507158 0.242827
vt 0.885926 0.293475
vt 0.964168 0.645433
vt 0.979393 0.681973
vt 0.525530 0.685209
vt 0.547036 0.620691
vt 0.570892 0.292205
vt 0.570892 0.750558
vt 0.954014 0.750558
vt 0.954014 0.292205
vt 0.002228 0.669543
vt 0.002228 0.585318
vt 0.495304 0.585318
vt 0.495304 0.669543
vt 0.988991 0.377856
vt 0.947779 0.435364
vt 0.609927 0.441893
vt 0.517703 0.377856
vt 0.722081 0.487170
vt 0.609440 0.592300
vt 0.610233 0.410207
vt 0.760165 0.406240
vt 0.609110 0.629196
vt 0.724974 0.521058
vt 0.764149 0.437813
vt 0.524168 0.379031
vt 0.514935 0.322971
vt 0.552300 0.322972
vt 0.543067 0.379031
vt 0.691316 0.786229
vt 0.691316 0.213770
vt 0.820527 0.213770
vt 0.820527 0.786229
vt 0.000000 0.000000
vt 1.000000 0.000000
vt 1.000000 1.000000
vt 0.000000 1.000000
vt 0.505648 0.638811
vt 0.505648 0.569557
vt 0.544370 0.569558
vt 0.544370 0.638812
vt 0.628089 0.200909
vt 0.718099 0.200910
vt 0.718099 0.770102
vt 0.517623 0.249438
vt 0.953335 0.249438
vt 0.953335 0.292205
vt 0.517623 0.292205
vt 0.552300 0.562351
vt 0.552300 0.603772
vt 0.514935 0.603772
vt 0.691316 0.786229
vt 0.691316 0.213770
vt 0.820527 0.213770
vt 0.820527 0.786229
vt 0.570892 0.249438
vt 0.664605 0.586480
vt 0.766645 0.586480
vt 0.766645 0.688520
vt 0.664605 0.688520
vt 0.514935 0.381417
vt 0.514935 0.462566
vt 0.552300 0.462567
vt 0.552300 0.381418
vt 0.513849 0.463783
vt 0.513849 0.282689
vt 0.550910 0.282690
vt 0.550910 0.463783
vt 0.646909 0.194529
vt 0.854012 0.205212
vt 0.854012 0.227077
vt 0.646909 0.237760
vt 0.513849 0.220775
vt 0.550909 0.220776
vt 0.550909 0.813739
vt 0.003690 0.995690
vt 0.003690 0.526128
vt 0.488498 0.524566
vt 0.488498 0.995690
vt 0.620470 0.590421
vt 0.517515 0.795688
vt 0.549975 0.795688
vt 0.594922 0.489170
vt 0.632911 0.553100
vt 0.652608 0.495045
vt 0.883018 0.588563
vt 0.874200 0.567399
vt 0.693039 0.397595
vt 0.595613 0.330555
vt 0.983316 0.520263
vt 0.983831 0.484280
vt 0.726214 0.327099
vt 0.916619 0.276326
vt 0.881719 0.325026
vt 0.517514 0.276326
vt 0.979393 0.681973
vt 0.525530 0.685209
vt 0.547036 0.620691
vt 0.964168 0.645433
vt 0.004555 0.322948
vt 0.487540 0.322948
vt 0.487540 0.397507
vt 0.004555 0.397507
vt 0.978754 0.347951
vt 0.520575 0.347951
vt 0.938688 0.403860
vt 0.981099 0.379031
vt 0.961797 0.379031
vt 0.952765 0.322972
vt 0.990131 0.322971
vt 0.820527 0.786229
vt 0.691316 0.786229
vt 0.691316 0.213770
vt 0.820527 0.213770
vt 0.000000 0.000000
vt 1.000000 0.000000
vt 1.000000 1.000000
vt 0.000000 1.000000
vt 0.959369 0.569558
vt 0.998091 0.569557
vt 0.998091 0.638811
vt 0.959369 0.638812
vt 0.727734 0.110683
vt 0.628351 0.739147
vt 0.628351 0.110683
vt 0.517623 0.793325
vt 0.517623 0.750558
vt 0.953335 0.750558
vt 0.953335 0.793325
vt 0.990131 0.603772
vt 0.952765 0.603772
vt 0.952765 0.562351
vt 0.691316 0.213770
vt 0.820527 0.213770
vt 0.820527 0.786229
vt 0.691316 0.786229
vt 0.570892 0.793325
vt 0.664605 0.586480
vt 0.766645 0.586480
vt 0.766645 0.688520
vt 0.664605 0.688520
vt 0.990131 0.381417
vt 0.952765 0.381418
vt 0.952765 0.462567
vt 0.990131 0.462566
vt 0.985163 0.463783
vt 0.948103 0.463783
vt 0.948103 0.282690
vt 0.985163 0.282689
vt 0.646909 0.744315
vt 0.646909 0.701085
vt 0.854012 0.711534
vt 0.854012 0.733866
vt 0.948103 0.220776
vt 0.985164 0.220775
vt 0.948103 0.813739
vt 0.004384 0.260305
vt 0.491648 0.260305
vt 0.491648 0.747569
vt 0.004384 0.747569
vt -0.000582 0.952265
vt -0.000582 0.458921
vt 0.492762 0.458921
vt 0.492762 0.952265
vt 0.550909 0.359230
vt 0.948103 0.359230
vn -0.9877 0.1562 -0.0001
vn -0.9774 0.0517 -0.2051
vn -1.0000 -0.0000 -0.0001
vn -1.0000 0.0006 0.0096
vn 1.0000 -0.0000 0.0001
vn -0.9738 -0.2097 0.0885
vn 0.9973 -0.0726 -0.0121
vn 1.0000 0.0006 0.0098
vn -0.0000 -0.9583 0.2857
vn 0.0000 1.0000 -0.0000
vn -0.9973 -0.0726 -0.0124
vn -0.0001 0.5825 0.8128
vn 0.0000 -0.9982 0.0592
vn -0.0001 0.3213 0.9470
vn -0.0001 0.3248 0.9458
vn 0.0000 0.9971 -0.0760
vn -0.0001 0.0143 0.9999
vn -0.0000 1.0000 0.0071
vn -0.0001 -0.3846 0.9231
vn 0.0001 -0.4258 -0.9048
vn -0.0001 0.0044 1.0000
vn -0.0000 0.9999 0.0133
vn -0.0001 -0.8214 0.5704
vn 0.0001 -0.2448 -0.9696
vn -0.0001 0.3231 0.9464
vn 0.9877 0.1562 0.0001
vn 0.9774 0.0517 -0.2049
vn 1.0000 0.0006 0.0097
vn 0.9737 -0.2097 0.0887
vn -0.9974 -0.0710 -0.0121
vn -1.0000 0.0006 0.0095
vn 0.9974 -0.0710 -0.0119
vn 0.0001 -0.7311 -0.6823
s off
f 5/1/1 4/2/1 3/3/1
f 3/3/2 6/4/2 5/1/2
f 10/5/3 5/1/3 6/4/3
f 11/6/3 10/5/3 6/4/3
f 8/7/4 5/1/4 10/5/4 9/8/4
f 14/9/5 7/10/5 6/4/5
f 6/4/3 14/9/3 11/6/3
f 12/11/6 11/6/6 14/9/6 13/12/6
f 14/9/5 15/13/5 7/10/5
f 2/14/7 1/15/7 7/10/7 16/16/7
f 21/17/8 22/18/8 24/19/8 20/20/8
f 27/21/9 56/22/9 42/23/9 13/24/9
f 3/25/10 4/26/10 33/27/10 32/28/10
f 19/29/11 29/30/11 23/31/11 18/32/11
f 56/33/3 46/34/3 52/35/3 57/36/3
f 17/37/5 27/38/5 28/39/5 23/31/5
f 16/40/12 2/41/12 19/42/12 29/43/12
f 9/44/13 10/45/13 24/46/13 22/47/13
f 1/48/10 2/49/10 19/50/10 18/51/10
f 10/52/14 11/53/14 25/54/14 24/55/14
f 5/56/15 20/57/15 4/58/15
f 11/59/16 12/60/16 26/61/16 25/62/16
f 13/63/17 26/64/17 12/65/17
f 5/66/18 8/67/18 21/68/18 20/69/18
f 13/24/9 14/70/9 27/21/9
f 8/71/19 9/72/19 22/73/19 21/74/19
f 15/75/20 14/76/20 27/77/20 28/78/20
f 6/79/21 7/80/21 23/81/21 17/82/21
f 15/83/22 16/84/22 29/85/22 28/86/22
f 7/80/23 1/87/23 18/88/23 23/81/23
f 6/79/24 3/89/24 17/82/24
f 4/90/25 25/91/25 54/92/25 33/93/25
f 34/94/26 32/95/26 33/96/26
f 32/95/27 34/94/27 35/97/27
f 39/98/5 35/97/5 34/94/5
f 40/99/5 35/97/5 39/98/5
f 37/100/28 38/101/28 39/98/28 34/94/28
f 43/102/3 35/97/3 36/103/3
f 35/97/5 40/99/5 43/102/5
f 41/104/29 42/105/29 43/102/29 40/99/29
f 43/102/3 36/103/3 44/106/3
f 31/107/30 45/108/30 36/103/30 30/109/30
f 50/110/31 49/111/31 53/112/31 51/113/31
f 13/114/17 42/115/17 55/116/17 26/117/17
f 48/118/32 47/119/32 52/35/32 58/120/32
f 45/121/12 58/122/12 48/123/12 31/124/12
f 38/125/13 51/126/13 53/127/13 39/128/13
f 30/129/10 47/130/10 48/131/10 31/132/10
f 39/133/14 53/134/14 54/135/14 40/136/14
f 34/137/15 33/138/15 49/139/15
f 40/140/16 54/141/16 55/142/16 41/143/16
f 41/144/17 55/145/17 42/146/17
f 34/147/18 49/148/18 50/149/18 37/150/18
f 42/23/9 56/22/9 43/151/9
f 37/152/19 50/153/19 51/154/19 38/155/19
f 44/156/20 57/157/20 56/158/20 43/159/20
f 35/160/21 46/161/21 52/162/21 36/163/21
f 44/164/22 57/165/22 58/166/22 45/167/22
f 36/163/23 52/162/23 47/168/23 30/169/23
f 35/160/24 46/161/24 32/170/24
f 28/78/20 27/77/20 56/158/20 57/157/20
f 26/171/16 55/172/16 54/173/16 25/174/16
f 17/175/24 3/176/24 32/177/24 46/178/24
f 27/179/33 17/82/33 46/161/33 56/180/33
