# Blender v2.79 (sub 0) OBJ File: 'radar.blend'
# www.blender.org
o Cone
v 0.000356 -0.317135 -0.606652
v -0.258614 -0.268537 -0.589584
v -0.478160 -0.130141 -0.540956
v -0.624858 0.076982 -0.468169
v -0.676374 0.321302 -0.382305
v -0.624866 0.565621 -0.296436
v -0.478176 0.772745 -0.223634
v -0.258635 0.911141 -0.174984
v 0.000334 0.959739 -0.157891
v 0.259304 0.911141 -0.174958
v 0.478850 0.772745 -0.223587
v 0.625548 0.565621 -0.296373
v 0.000333 0.220224 -0.136696
v 0.677064 0.321301 -0.382237
v 0.625556 0.076982 -0.468107
v 0.478865 -0.130142 -0.540908
v 0.259324 -0.268538 -0.589559
v -0.098108 0.312977 -0.017808
v -0.098112 0.116108 0.063307
v -0.045865 0.260739 -0.123718
v -0.045863 0.168346 -0.165836
v 0.098761 0.312977 -0.017798
v 0.098757 0.116108 0.063317
v 0.046529 0.260739 -0.123714
v 0.046531 0.168346 -0.165832
v -0.232693 -0.500000 0.290547
v -0.109011 -0.500000 -0.309447
v 0.109694 -0.500000 -0.309436
v 0.233316 -0.500000 0.290571
v 0.002190 0.252998 -0.183445
v 0.000380 0.736840 -1.072772
v 0.000355 -0.268034 -0.589186
v 0.000378 0.709258 -1.030455
v 0.000335 0.912415 -0.174396
v 0.615145 0.321732 -0.381960
v -0.622440 0.321643 -0.382022
vt 0.504701 0.381411
vt 0.700902 0.382606
vt 0.602212 0.782100
vt 0.504701 0.381411
vt 0.700902 0.382606
vt 0.504701 0.381411
vt 0.700902 0.382606
vt 0.504701 0.381411
vt 0.700902 0.382606
vt 0.504701 0.381411
vt 0.700902 0.382606
vt 0.700902 0.382606
vt 0.504701 0.381411
vt 0.504701 0.381411
vt 0.700902 0.382606
vt 0.504701 0.381411
vt 0.700902 0.382606
vt 0.504701 0.381411
vt 0.700902 0.382606
vt 0.504701 0.381411
vt 0.700902 0.382606
vt 0.700902 0.382606
vt 0.504701 0.381411
vt 0.504701 0.381411
vt 0.700902 0.382606
vt 0.504701 0.381411
vt 0.700902 0.382606
vt 0.504701 0.381411
vt 0.700902 0.382606
vt 0.504701 0.381411
vt 0.700902 0.382606
vt 0.504701 0.381411
vt 0.700902 0.382606
vt 0.250205 0.690471
vt 0.327155 0.527763
vt 0.160006 0.580182
vt 0.194613 0.663052
vt 0.724477 0.539990
vt 0.724477 0.477665
vt 0.662151 0.477665
vt 0.662151 0.539990
vt 0.252732 0.690471
vt 0.175782 0.527763
vt 0.342932 0.580182
vt 0.308325 0.663052
vt 0.441837 0.472103
vt 0.324661 0.472103
vt 0.321536 0.364302
vt 0.444962 0.358052
vt 0.199551 0.460935
vt 0.199551 0.370315
vt 0.056699 0.350449
vt 0.056699 0.477676
vt 0.483933 0.020004
vt 0.019004 0.016879
vt 0.189499 0.744695
vt 0.315879 0.744695
vt 0.387333 0.397980
vt 0.118045 0.397980
vt 0.204502 0.430690
vt 0.308870 0.430690
vt 0.380210 0.757310
vt 0.133162 0.757310
vt 0.767079 0.026823
vt 0.619549 0.026823
vt 0.019004 0.020004
vt 0.483933 0.016879
vt 0.164165 0.863774
vt 0.454032 0.896770
vt 0.167720 0.979281
vt 0.164165 0.863774
vt 0.167720 0.979281
vt 0.164165 0.863774
vt 0.167720 0.979281
vt 0.164165 0.863774
vt 0.167720 0.979281
vt 0.167720 0.979281
vt 0.164165 0.863774
vt 0.164165 0.863774
vt 0.167720 0.979281
vt 0.164165 0.863774
vt 0.167720 0.979281
vt 0.164165 0.863774
vt 0.167720 0.979281
vt 0.164165 0.863774
vt 0.167720 0.979281
vt 0.167720 0.979281
vt 0.164165 0.863774
vt 0.167720 0.979281
vt 0.164165 0.863774
vt 0.167720 0.979281
vt 0.164165 0.863774
vt 0.167720 0.979281
vt 0.164165 0.863774
vt 0.167720 0.979281
vt 0.164165 0.863774
vt 0.164165 0.863774
vt 0.167720 0.979281
vt 0.167720 0.979281
vt 0.164165 0.863774
vt 0.572541 0.043338
vt 0.627459 0.043338
vt 0.627459 0.731662
vt 0.572541 0.731662
vt 0.575666 0.731662
vt 0.575666 0.043338
vt 0.630584 0.043338
vt 0.630584 0.731662
vt 0.572541 0.043338
vt 0.627459 0.043338
vt 0.575666 0.043338
vt 0.630584 0.043338
vt 0.630584 0.731662
vt 0.575666 0.731662
vn -0.0712 0.0286 0.9971
vn 0.0737 -0.6565 0.7507
vn 0.2092 -0.6026 0.7701
vn 0.2030 -0.0219 0.9789
vn 0.0711 0.0286 0.9971
vn 0.3054 -0.1158 0.9452
vn 0.3626 -0.2400 0.9005
vn 0.3652 -0.3763 0.8515
vn 0.3116 -0.5039 0.8056
vn -0.0737 -0.6565 0.7507
vn -0.2093 -0.6026 0.7701
vn -0.3652 -0.3763 0.8515
vn -0.3055 -0.1158 0.9451
vn -0.2031 -0.0219 0.9789
vn -0.3627 -0.2400 0.9005
vn -0.3117 -0.5039 0.8056
vn 0.9539 0.0401 0.2975
vn -0.0000 -0.4148 0.9099
vn -0.9539 0.0401 0.2974
vn 0.0000 -0.3810 -0.9246
vn -0.0000 -0.8968 0.4423
vn 0.9708 -0.1366 0.1974
vn 0.0000 1.0000 0.0000
vn 0.0000 -0.3461 -0.9382
vn -0.0000 -0.2101 0.9777
vn -0.9708 -0.1366 0.1973
vn 0.0590 0.0362 -0.9976
vn -0.1682 0.0784 -0.9826
vn -0.0590 0.0359 -0.9976
vn -0.2518 0.1572 -0.9549
vn -0.0588 0.5951 -0.8015
vn 0.2953 0.3716 -0.8802
vn 0.2509 0.1580 -0.9550
vn 0.1679 0.0792 -0.9826
vn 0.2956 0.2607 -0.9191
vn -0.2967 0.3717 -0.8796
vn -0.2513 0.4745 -0.8436
vn -0.2970 0.2603 -0.9187
vn -0.1677 0.5529 -0.8162
vn 0.1673 0.5523 -0.8167
vn 0.2503 0.4740 -0.8442
vn 0.0588 0.5949 -0.8017
vn -0.0133 0.8518 0.5237
vn 0.0151 0.8509 0.5251
vn -1.0000 -0.0000 -0.0001
vn -1.0000 0.0000 -0.0000
s off
f 9/1/1 8/2/1 13/3/1
f 13/3/2 1/4/2 17/5/2
f 17/6/3 16/7/3 13/3/3
f 11/8/4 10/9/4 13/3/4
f 10/10/5 9/11/5 13/3/5
f 11/12/6 13/3/6 12/13/6
f 14/14/7 12/15/7 13/3/7
f 15/16/8 14/17/8 13/3/8
f 16/18/9 15/19/9 13/3/9
f 13/3/10 2/20/10 1/21/10
f 2/22/11 13/3/11 3/23/11
f 5/24/12 4/25/12 13/3/12
f 7/26/13 6/27/13 13/3/13
f 8/28/14 7/29/14 13/3/14
f 6/30/15 5/31/15 13/3/15
f 4/32/16 3/33/16 13/3/16
f 18/34/17 19/35/17 21/36/17 20/37/17
f 20/38/18 21/39/18 25/40/18 24/41/18
f 24/42/19 25/43/19 23/44/19 22/45/19
f 22/46/20 23/47/20 19/48/20 18/49/20
f 20/50/21 24/51/21 22/52/21 18/53/21
f 21/36/22 19/35/22 26/54/22 27/55/22
f 28/56/23 27/57/23 26/58/23 29/59/23
f 19/60/24 23/61/24 29/62/24 26/63/24
f 25/40/25 21/39/25 27/64/25 28/65/25
f 23/44/26 25/43/26 28/66/26 29/67/26
f 9/68/27 30/69/27 8/70/27
f 11/71/28 30/69/28 10/72/28
f 10/73/29 30/69/29 9/74/29
f 12/75/30 30/69/30 11/76/30
f 30/69/31 17/77/31 1/78/31
f 5/79/32 30/69/32 4/80/32
f 7/81/33 30/69/33 6/82/33
f 8/83/34 30/69/34 7/84/34
f 6/85/35 30/69/35 5/86/35
f 30/69/36 14/87/36 15/88/36
f 15/89/37 16/90/37 30/69/37
f 12/91/38 14/92/38 30/69/38
f 16/93/39 17/94/39 30/69/39
f 30/69/40 2/95/40 3/96/40
f 4/97/41 30/69/41 3/98/41
f 1/99/42 2/100/42 30/69/42
f 35/101/43 14/102/43 31/103/43 33/104/43
f 36/105/44 33/106/44 31/107/44 5/108/44
f 34/109/45 9/110/45 31/103/45 33/104/45
f 1/111/46 32/112/46 33/113/46 31/114/46
