# Blender v2.79 (sub 0) OBJ File: 'shop.blend'
# www.blender.org
mtllib shop.mtl
o Cube
v 1.500000 -0.500000 0.000000
v 1.500000 -0.500000 0.500000
v -1.500000 -0.500000 0.500000
v -1.500000 -0.500000 -0.000000
v 1.500000 3.000000 0.000000
v 1.499999 3.000000 0.500001
v -1.500000 3.000000 0.500000
v -1.500000 3.000000 -0.000000
vt 0.993737 1.003113
vt -0.006162 1.003112
vt -0.006162 0.753137
vt 0.993737 0.753137
vt 1.000000 0.000000
vt 1.000000 1.000000
vt 0.000000 1.000000
vt 0.000000 0.000000
vt -0.006162 0.750013
vt 0.993737 0.750012
vt 0.993737 0.999987
vt -0.006162 0.999987
vt 0.000000 1.000000
vt 0.000000 0.000000
vt 1.000000 0.000000
vt 1.000000 1.000000
vt 0.000000 0.000000
vt 0.000000 0.000000
vt 0.000000 0.000000
vt 0.000000 0.000000
vt 0.000000 0.000000
vt 0.000000 0.000000
vn 1.0000 -0.0000 0.0000
vn -0.0000 -0.0000 1.0000
vn -1.0000 -0.0000 -0.0000
vn 0.0000 0.0000 -1.0000
vn 0.0000 -1.0000 0.0000
vn 0.0000 1.0000 0.0000
usemtl Material
s off
f 1/1/1 5/2/1 6/3/1 2/4/1
f 2/5/2 6/6/2 7/7/2 3/8/2
f 3/9/3 7/10/3 8/11/3 4/12/3
f 5/13/4 1/14/4 4/15/4 8/16/4
usemtl Material_NONE
f 1/14/5 2/17/5 3/8/5 4/18/5
f 5/19/6 8/20/6 7/21/6 6/22/6
